<svg xmlns="http://www.w3.org/2000/svg" width="150" height="46" viewBox="0 0 150 46" fill="none"><g clip-path="url(#clip0_10355_18)"><g opacity="0.25"><path fill-rule="evenodd" clip-rule="evenodd" d="M65.2936 7.99041V4.65601C55.3599 4.65601 47.3044 12.8691 47.3044 23.0022C47.3044 33.1353 55.3599 41.3484 65.2936 41.3484V38.014C57.1639 38.014 50.5739 31.2942 50.5739 23.0022C50.5739 14.7102 57.1639 7.99041 65.2936 7.99041Z" fill="url(#paint0_linear_10355_18)"></path></g><path d="M110.496 0H72.6163H69.0037V3.68686V11.2786H72.6163V3.68686H110.496V11.2786H114.109V3.68686V0H110.496Z" fill="white"></path><path d="M110.496 34.7213V42.313H72.6163V34.7213H69.0037V45.9999H72.0366H72.6163H110.496H112.3H114.109V34.7213H110.496Z" fill="white"></path><path d="M5.0331 30.0884V17.4001H0.0106201V15.981H11.688V17.4001H6.66552V30.0884H5.03774H5.0331Z" fill="white"></path><path d="M13.9373 30.0884V15.981H19.4142C20.9075 15.981 22.0437 16.3334 22.8275 17.043C23.6251 17.7479 24.024 18.7589 24.024 20.0667C24.024 21.1055 23.7411 21.9634 23.1799 22.6266C22.628 23.2944 21.8443 23.7257 20.824 23.9297C21.4269 24.1431 21.9417 24.6625 22.373 25.4926L24.8077 30.0977H23.0408L20.6478 25.5761C20.3464 25.0149 19.9986 24.6347 19.609 24.4352C19.2148 24.2358 18.7 24.1338 18.06 24.1338H15.5465V30.0977H13.9373V30.0884ZM15.5465 22.8214H19.1777C21.3481 22.8214 22.4379 21.8985 22.4379 20.0574C22.4379 18.2163 21.3527 17.3351 19.1777 17.3351H15.5465V22.8167V22.8214Z" fill="white"></path><path d="M26.0135 30.0884L32.1166 15.981H33.4893L39.5923 30.0884H37.9228L36.3924 26.485H29.1903L27.6784 30.0884H26.0089H26.0135ZM32.7844 17.9009L29.7793 25.1077H35.8266L32.8215 17.9009H32.7844Z" fill="white"></path><path d="M42.1383 30.0884V15.981H46.8083C49.0483 15.981 50.7735 16.5885 51.9885 17.8035C53.2035 19.0046 53.8157 20.7437 53.8157 23.0254C53.8157 25.3071 53.2082 27.0555 51.9885 28.2705C50.7735 29.4855 49.0436 30.0931 46.8083 30.0931H42.1383V30.0884ZM43.7475 28.6879H46.6924C50.3051 28.6879 52.1091 26.8004 52.1091 23.0254C52.1091 19.2504 50.3051 17.3815 46.6924 17.3815H43.7475V28.6879Z" fill="white"></path><path d="M57.1919 30.0884V15.981H65.9244V17.363H58.7594V22.2463H65.5117V23.6283H58.7594V28.7111H65.9244V30.0931H57.1919V30.0884Z" fill="white"></path><path d="M69.0037 30.0884V15.981H72.6163V27.0276H78.7796V30.0884H69.0037Z" fill="white"></path><path d="M86.8814 30.3111C85.4808 30.3111 84.2519 30.0097 83.1899 29.4114C82.1418 28.7993 81.3256 27.9459 80.7366 26.8515C80.1476 25.757 79.8555 24.4817 79.8555 23.0301C79.8555 21.5786 80.143 20.2893 80.7181 19.2088C81.307 18.1143 82.1325 17.2656 83.1899 16.6674C84.2519 16.0691 85.4808 15.7677 86.8814 15.7677C88.2819 15.7677 89.5062 16.0691 90.5497 16.6674C91.6117 17.2656 92.4325 18.1143 93.0215 19.2088C93.6105 20.2893 93.9027 21.5647 93.9027 23.0301C93.9027 24.4956 93.6105 25.757 93.0215 26.8515C92.4325 27.9459 91.6071 28.7993 90.5497 29.4114C89.5016 30.0097 88.2819 30.3111 86.8814 30.3111ZM86.8814 27.2271C87.9016 27.2271 88.6993 26.8608 89.2744 26.128C89.8633 25.3814 90.1555 24.3472 90.1555 23.0255C90.1555 21.7038 89.868 20.6789 89.2929 19.9415C88.7179 19.2088 87.9109 18.8424 86.8814 18.8424C85.8518 18.8424 85.0449 19.2088 84.4652 19.9415C83.8902 20.6742 83.6026 21.7038 83.6026 23.0255C83.6026 24.3472 83.8902 25.3814 84.4652 26.128C85.0403 26.8608 85.8472 27.2271 86.8814 27.2271Z" fill="white"></path><path d="M103.517 30.3111C101.986 30.3111 100.669 30.0097 99.57 29.4114C98.4709 28.8132 97.6269 27.9645 97.0379 26.87C96.4628 25.7756 96.1753 24.4956 96.1753 23.0255C96.1753 21.5554 96.4628 20.2847 97.0379 19.2041C97.6269 18.1097 98.4709 17.261 99.57 16.6627C100.669 16.0645 101.986 15.7631 103.517 15.7631C104.435 15.7631 105.316 15.9115 106.165 16.2036C107.013 16.4819 107.704 16.8575 108.224 17.3259L107.143 20.229C106.568 19.8024 105.993 19.487 105.418 19.2876C104.843 19.0743 104.254 18.9676 103.651 18.9676C102.436 18.9676 101.518 19.3201 100.901 20.0296C100.284 20.7253 99.9781 21.7223 99.9781 23.0301C99.9781 24.3379 100.284 25.3628 100.901 26.0724C101.518 26.768 102.431 27.1112 103.651 27.1112C104.254 27.1112 104.843 27.0092 105.418 26.8097C105.993 26.5964 106.568 26.2764 107.143 25.8498L108.224 28.7529C107.7 29.2213 107.013 29.6016 106.165 29.8937C105.316 30.172 104.43 30.3157 103.517 30.3157V30.3111Z" fill="white"></path><path d="M110.496 30.0884V15.981H114.109V22.0237H114.146L119.525 15.981H123.806L117.642 22.6869L124.019 30.0931H119.72L114.146 23.7303H114.109V30.0931H110.496V30.0884Z" fill="white"></path><path d="M124.96 30.0884V15.981H134.736V18.8238H128.415V21.5043H134.282V24.3471H128.415V27.2502H134.736V30.0931H124.96V30.0884Z" fill="white"></path><path d="M137.505 30.0884V15.981H144.16C145.732 15.981 146.943 16.3751 147.791 17.1635C148.654 17.938 149.085 19.0186 149.085 20.4052C149.085 21.4579 148.825 22.3483 148.301 23.0672C147.791 23.7721 147.045 24.2683 146.061 24.5465C146.794 24.746 147.383 25.2607 147.828 26.0862L149.989 30.0884H146.024L143.631 25.6039C143.474 25.3256 143.27 25.1216 143.024 25.0057C142.787 24.8851 142.514 24.8248 142.198 24.8248H141.118V30.0884H137.505ZM141.118 22.2231H143.511C144.939 22.2231 145.649 21.6481 145.649 20.5026C145.649 19.3571 144.934 18.8006 143.511 18.8006H141.118V22.2231Z" fill="white"></path></g><defs><linearGradient id="paint0_linear_10355_18" x1="47.3044" y1="23.0022" x2="65.2936" y2="23.0022" gradientUnits="userSpaceOnUse"><stop offset="0.45" stop-color="white"></stop><stop offset="0.87" stop-color="white" stop-opacity="0"></stop></linearGradient><clipPath id="clip0_10355_18"><rect width="149.979" height="46" fill="white" transform="translate(0.0106201)"></rect></clipPath></defs></svg>